<mxfile host="app.diagrams.net" modified="2024-04-22T07:56:57.659Z" agent="Mozilla/5.0 (Windows NT 10.0; Win64; x64) AppleWebKit/537.36 (KHTML, like Gecko) Chrome/123.0.0.0 Safari/537.36" etag="YqFtOPrjVqjjvVevQBty" version="24.2.7" type="google">
  <diagram name="Page-1" id="e7e014a7-5840-1c2e-5031-d8a46d1fe8dd">
    <mxGraphModel grid="0" page="0" gridSize="10" guides="1" tooltips="1" connect="1" arrows="1" fold="1" pageScale="1" pageWidth="1169" pageHeight="826" background="none" math="0" shadow="0">
      <root>
        <mxCell id="0" />
        <mxCell id="1" parent="0" />
        <mxCell id="2" value="로그인" style="swimlane;whiteSpace=wrap;rounded=0;strokeWidth=5;fontSize=20;" vertex="1" parent="1">
          <mxGeometry x="246" y="38" width="280" height="570" as="geometry" />
        </mxCell>
        <mxCell id="5" value="" style="ellipse;shape=startState;fillColor=#000000;strokeColor=#ff0000;rounded=0;strokeWidth=5;fontSize=20;" vertex="1" parent="2">
          <mxGeometry x="100" y="40" width="30" height="30" as="geometry" />
        </mxCell>
        <mxCell id="6" value="" style="edgeStyle=elbowEdgeStyle;elbow=horizontal;verticalAlign=bottom;endArrow=open;endSize=8;strokeColor=#FF0000;endFill=1;rounded=0;strokeWidth=5;fontSize=20;" edge="1" parent="2" source="5" target="7">
          <mxGeometry x="100" y="40" as="geometry">
            <mxPoint x="115" y="110" as="targetPoint" />
          </mxGeometry>
        </mxCell>
        <mxCell id="7" value="로그인" style="rounded=0;strokeWidth=5;fontSize=20;" vertex="1" parent="2">
          <mxGeometry x="60" y="110" width="110" height="50" as="geometry" />
        </mxCell>
        <mxCell id="9" value="" style="endArrow=open;strokeColor=#FF0000;endFill=1;rounded=0;strokeWidth=5;fontSize=20;" edge="1" parent="2" source="7">
          <mxGeometry relative="1" as="geometry">
            <mxPoint x="115" y="220" as="targetPoint" />
          </mxGeometry>
        </mxCell>
        <mxCell id="10" value="로그인 성공" style="rounded=0;strokeWidth=5;fontSize=20;" vertex="1" parent="2">
          <mxGeometry x="54.5" y="325" width="122" height="55" as="geometry" />
        </mxCell>
        <mxCell id="11" value="" style="endArrow=open;strokeColor=#FF0000;endFill=1;rounded=0;exitX=0.5;exitY=1;exitDx=0;exitDy=0;strokeWidth=5;fontSize=20;" edge="1" parent="2" source="uYI1ENuEKu4iVCfrBXt--41" target="10">
          <mxGeometry relative="1" as="geometry">
            <mxPoint x="115" y="270" as="sourcePoint" />
          </mxGeometry>
        </mxCell>
        <mxCell id="12" value="" style="edgeStyle=elbowEdgeStyle;elbow=horizontal;strokeColor=#FF0000;endArrow=open;endFill=1;rounded=0;strokeWidth=5;fontSize=20;" edge="1" parent="2" source="10" target="7">
          <mxGeometry width="100" height="100" relative="1" as="geometry">
            <mxPoint x="160" y="290" as="sourcePoint" />
            <mxPoint x="260" y="190" as="targetPoint" />
            <Array as="points">
              <mxPoint x="235" y="280" />
            </Array>
          </mxGeometry>
        </mxCell>
        <mxCell id="uYI1ENuEKu4iVCfrBXt--41" value="회원" style="rhombus;whiteSpace=wrap;html=1;fontColor=#000000;fillColor=#ffffc0;strokeColor=#ff0000;rounded=0;strokeWidth=5;fontSize=20;" vertex="1" parent="2">
          <mxGeometry x="75.5" y="220" width="80" height="40" as="geometry" />
        </mxCell>
        <mxCell id="uYI1ENuEKu4iVCfrBXt--53" value="" style="edgeStyle=none;curved=1;rounded=0;orthogonalLoop=1;jettySize=auto;html=1;fontSize=12;startSize=8;endSize=8;strokeWidth=4;" edge="1" parent="1" source="uYI1ENuEKu4iVCfrBXt--45">
          <mxGeometry relative="1" as="geometry">
            <mxPoint x="800" y="368" as="targetPoint" />
          </mxGeometry>
        </mxCell>
        <mxCell id="uYI1ENuEKu4iVCfrBXt--45" value="&lt;font style=&quot;font-size: 20px;&quot;&gt;무인점포 관리자&lt;/font&gt;" style="shape=umlActor;verticalLabelPosition=bottom;verticalAlign=top;html=1;rounded=0;strokeWidth=4;" vertex="1" parent="1">
          <mxGeometry x="710" y="338" width="30" height="60" as="geometry" />
        </mxCell>
        <mxCell id="uYI1ENuEKu4iVCfrBXt--84" value="냉방 제어" style="swimlane;whiteSpace=wrap;rounded=0;strokeWidth=4;fontSize=20;" vertex="1" parent="1">
          <mxGeometry x="815" y="120" width="285" height="570" as="geometry" />
        </mxCell>
        <mxCell id="uYI1ENuEKu4iVCfrBXt--85" value="" style="ellipse;shape=startState;fillColor=#000000;strokeColor=#ff0000;rounded=0;strokeWidth=4;" vertex="1" parent="uYI1ENuEKu4iVCfrBXt--84">
          <mxGeometry x="134.5" y="40" width="30" height="30" as="geometry" />
        </mxCell>
        <mxCell id="uYI1ENuEKu4iVCfrBXt--86" value="" style="edgeStyle=elbowEdgeStyle;elbow=horizontal;verticalAlign=bottom;endArrow=open;endSize=8;strokeColor=#FF0000;endFill=1;rounded=0;entryX=0.5;entryY=0;entryDx=0;entryDy=0;strokeWidth=4;" edge="1" parent="uYI1ENuEKu4iVCfrBXt--84" source="uYI1ENuEKu4iVCfrBXt--85" target="uYI1ENuEKu4iVCfrBXt--94">
          <mxGeometry x="40" y="20" as="geometry">
            <mxPoint x="143" y="110" as="targetPoint" />
          </mxGeometry>
        </mxCell>
        <mxCell id="uYI1ENuEKu4iVCfrBXt--94" value="&lt;font style=&quot;font-size: 20px;&quot;&gt;현재온도&amp;gt;설정온도&lt;/font&gt;" style="rhombus;whiteSpace=wrap;html=1;fontColor=#000000;fillColor=#ffffc0;strokeColor=#ff0000;rounded=0;strokeWidth=4;" vertex="1" parent="uYI1ENuEKu4iVCfrBXt--84">
          <mxGeometry x="42" y="176" width="215" height="100" as="geometry" />
        </mxCell>
        <mxCell id="uYI1ENuEKu4iVCfrBXt--102" value="냉난방 장치 작동" style="rounded=0;strokeWidth=4;fontSize=20;" vertex="1" parent="uYI1ENuEKu4iVCfrBXt--84">
          <mxGeometry x="65.5" y="414" width="168" height="59" as="geometry" />
        </mxCell>
        <mxCell id="msa-p7I_3yaAG2sm1weJ-56" value="" style="edgeStyle=elbowEdgeStyle;elbow=horizontal;verticalAlign=bottom;endArrow=open;endSize=8;strokeColor=#FF0000;endFill=1;rounded=0;strokeWidth=4;" edge="1" parent="uYI1ENuEKu4iVCfrBXt--84">
          <mxGeometry x="-775" y="-100" as="geometry">
            <mxPoint x="148.73" y="410" as="targetPoint" />
            <mxPoint x="149.06" y="283" as="sourcePoint" />
          </mxGeometry>
        </mxCell>
        <mxCell id="3" value="회원가입" style="swimlane;whiteSpace=wrap;rounded=0;strokeWidth=5;fontSize=20;" vertex="1" parent="1">
          <mxGeometry x="-39" y="38" width="285" height="570" as="geometry" />
        </mxCell>
        <mxCell id="13" value="" style="ellipse;shape=startState;fillColor=#000000;strokeColor=#ff0000;rounded=0;strokeWidth=5;fontSize=20;" vertex="1" parent="3">
          <mxGeometry x="127.5" y="40" width="30" height="30" as="geometry" />
        </mxCell>
        <mxCell id="14" value="" style="edgeStyle=elbowEdgeStyle;elbow=horizontal;verticalAlign=bottom;endArrow=open;endSize=8;strokeColor=#FF0000;endFill=1;rounded=0;strokeWidth=5;fontSize=20;" edge="1" parent="3" source="13">
          <mxGeometry x="40" y="20" as="geometry">
            <mxPoint x="143" y="110" as="targetPoint" />
          </mxGeometry>
        </mxCell>
        <mxCell id="uYI1ENuEKu4iVCfrBXt--59" value="" style="edgeStyle=none;curved=1;rounded=0;orthogonalLoop=1;jettySize=auto;html=1;fontSize=20;startSize=8;endSize=8;entryX=0.5;entryY=0;entryDx=0;entryDy=0;strokeWidth=5;" edge="1" parent="3" source="uYI1ENuEKu4iVCfrBXt--44" target="uYI1ENuEKu4iVCfrBXt--76">
          <mxGeometry relative="1" as="geometry">
            <mxPoint x="135" y="220" as="targetPoint" />
          </mxGeometry>
        </mxCell>
        <mxCell id="uYI1ENuEKu4iVCfrBXt--44" value="회원가입" style="html=1;whiteSpace=wrap;rounded=0;strokeWidth=5;fontSize=20;" vertex="1" parent="3">
          <mxGeometry x="87.5" y="112" width="110" height="50" as="geometry" />
        </mxCell>
        <mxCell id="uYI1ENuEKu4iVCfrBXt--78" value="" style="edgeStyle=none;curved=1;rounded=0;orthogonalLoop=1;jettySize=auto;html=1;fontSize=20;startSize=8;endSize=8;strokeWidth=5;" edge="1" parent="3" source="uYI1ENuEKu4iVCfrBXt--76">
          <mxGeometry relative="1" as="geometry">
            <mxPoint x="142.5" y="445" as="targetPoint" />
          </mxGeometry>
        </mxCell>
        <mxCell id="uYI1ENuEKu4iVCfrBXt--76" value="&lt;div style=&quot;box-sizing: border-box; width: 100%; background: rgb(228, 228, 228); padding: 2px; font-size: 20px;&quot;&gt;회원 정보&lt;/div&gt;&lt;table cellspacing=&quot;0&quot; cellpadding=&quot;2&quot; style=&quot;width: 100%; font-size: 20px;&quot;&gt;&lt;tbody style=&quot;font-size: 20px;&quot;&gt;&lt;tr style=&quot;font-size: 20px;&quot;&gt;&lt;td style=&quot;font-size: 20px;&quot;&gt;PK&lt;/td&gt;&lt;td style=&quot;font-size: 20px;&quot;&gt;아이디&lt;/td&gt;&lt;/tr&gt;&lt;tr style=&quot;font-size: 20px;&quot;&gt;&lt;td style=&quot;font-size: 20px;&quot;&gt;&lt;p style=&quot;font-size: 20px;&quot;&gt;NOT NULL&lt;/p&gt;&lt;/td&gt;&lt;td style=&quot;font-size: 20px;&quot;&gt;이메일&lt;br style=&quot;font-size: 20px;&quot;&gt;패스워드&lt;br style=&quot;font-size: 20px;&quot;&gt;연령대&lt;br style=&quot;font-size: 20px;&quot;&gt;나이&lt;br style=&quot;font-size: 20px;&quot;&gt;&lt;/td&gt;&lt;/tr&gt;&lt;/tbody&gt;&lt;/table&gt;" style="verticalAlign=top;align=left;overflow=fill;html=1;whiteSpace=wrap;rounded=0;strokeWidth=5;fontSize=20;" vertex="1" parent="3">
          <mxGeometry x="34" y="220" width="209.5" height="155" as="geometry" />
        </mxCell>
        <mxCell id="uYI1ENuEKu4iVCfrBXt--79" value="회원가입 성공" style="rounded=0;strokeWidth=5;fontSize=20;" vertex="1" parent="3">
          <mxGeometry x="76.25" y="446" width="132.5" height="59" as="geometry" />
        </mxCell>
        <mxCell id="uYI1ENuEKu4iVCfrBXt--42" value="no" style="edgeStyle=orthogonalEdgeStyle;html=1;align=left;verticalAlign=bottom;endArrow=open;endSize=8;strokeColor=#ff0000;rounded=0;fontSize=20;curved=1;entryX=1;entryY=0.5;entryDx=0;entryDy=0;strokeWidth=5;" edge="1" parent="1" source="uYI1ENuEKu4iVCfrBXt--41" target="uYI1ENuEKu4iVCfrBXt--44">
          <mxGeometry x="-1" relative="1" as="geometry">
            <mxPoint x="501.5" y="278" as="targetPoint" />
          </mxGeometry>
        </mxCell>
        <mxCell id="uYI1ENuEKu4iVCfrBXt--83" value="" style="edgeStyle=none;curved=1;rounded=0;orthogonalLoop=1;jettySize=auto;html=1;fontSize=20;startSize=8;endSize=8;strokeWidth=5;" edge="1" parent="1">
          <mxGeometry relative="1" as="geometry">
            <mxPoint x="179" y="513" as="sourcePoint" />
            <mxPoint x="301" y="173" as="targetPoint" />
          </mxGeometry>
        </mxCell>
        <mxCell id="uYI1ENuEKu4iVCfrBXt--92" value="&lt;font style=&quot;font-size: 20px;&quot;&gt;온도센서&lt;/font&gt;" style="shape=umlActor;verticalLabelPosition=bottom;verticalAlign=top;html=1;outlineConnect=0;rounded=0;strokeWidth=4;" vertex="1" parent="1">
          <mxGeometry x="1260" y="-160" width="30" height="60" as="geometry" />
        </mxCell>
        <mxCell id="uYI1ENuEKu4iVCfrBXt--93" value="" style="endArrow=classic;html=1;rounded=0;fontSize=12;startSize=8;endSize=8;curved=1;strokeWidth=4;" edge="1" parent="1">
          <mxGeometry width="50" height="50" relative="1" as="geometry">
            <mxPoint x="1134" y="3" as="sourcePoint" />
            <mxPoint x="957" y="110" as="targetPoint" />
          </mxGeometry>
        </mxCell>
        <mxCell id="msa-p7I_3yaAG2sm1weJ-14" value="간판 밝기 제어" style="swimlane;whiteSpace=wrap;rounded=0;strokeWidth=4;fontSize=20;" vertex="1" parent="1">
          <mxGeometry x="1100" y="120" width="288.25" height="570" as="geometry" />
        </mxCell>
        <mxCell id="msa-p7I_3yaAG2sm1weJ-15" value="" style="ellipse;shape=startState;fillColor=#000000;strokeColor=#ff0000;rounded=0;strokeWidth=4;" vertex="1" parent="msa-p7I_3yaAG2sm1weJ-14">
          <mxGeometry x="127.5" y="40" width="30" height="30" as="geometry" />
        </mxCell>
        <mxCell id="msa-p7I_3yaAG2sm1weJ-18" value="&lt;font style=&quot;font-size: 20px;&quot;&gt;외부밝기&amp;gt;간판설정밝기&lt;/font&gt;" style="rhombus;whiteSpace=wrap;html=1;fontColor=#000000;fillColor=#ffffc0;strokeColor=#ff0000;rounded=0;strokeWidth=4;" vertex="1" parent="msa-p7I_3yaAG2sm1weJ-14">
          <mxGeometry x="12" y="199" width="264.25" height="100" as="geometry" />
        </mxCell>
        <mxCell id="msa-p7I_3yaAG2sm1weJ-19" value="간판 밝기 제어" style="rounded=0;strokeWidth=4;fontSize=20;" vertex="1" parent="msa-p7I_3yaAG2sm1weJ-14">
          <mxGeometry x="70" y="421" width="162.5" height="65" as="geometry" />
        </mxCell>
        <mxCell id="msa-p7I_3yaAG2sm1weJ-57" value="" style="edgeStyle=elbowEdgeStyle;elbow=horizontal;verticalAlign=bottom;endArrow=open;endSize=8;strokeColor=#FF0000;endFill=1;rounded=0;entryX=0.5;entryY=0;entryDx=0;entryDy=0;strokeWidth=4;" edge="1" parent="msa-p7I_3yaAG2sm1weJ-14">
          <mxGeometry x="-1060" y="-100" as="geometry">
            <mxPoint x="143.6699999999999" y="414" as="targetPoint" />
            <mxPoint x="144.05" y="304" as="sourcePoint" />
          </mxGeometry>
        </mxCell>
        <mxCell id="msa-p7I_3yaAG2sm1weJ-58" value="" style="edgeStyle=elbowEdgeStyle;elbow=horizontal;verticalAlign=bottom;endArrow=open;endSize=8;strokeColor=#FF0000;endFill=1;rounded=0;strokeWidth=4;exitX=0.5;exitY=1;exitDx=0;exitDy=0;" edge="1" parent="msa-p7I_3yaAG2sm1weJ-14" source="msa-p7I_3yaAG2sm1weJ-15">
          <mxGeometry x="-1060" y="-100" as="geometry">
            <mxPoint x="143.59" y="195" as="targetPoint" />
            <mxPoint x="143.9599999999999" y="82" as="sourcePoint" />
          </mxGeometry>
        </mxCell>
        <mxCell id="msa-p7I_3yaAG2sm1weJ-20" value="내부 조명 제어" style="swimlane;whiteSpace=wrap;rounded=0;strokeWidth=4;fontSize=20;" vertex="1" parent="1">
          <mxGeometry x="1385" y="120" width="285" height="570" as="geometry" />
        </mxCell>
        <mxCell id="msa-p7I_3yaAG2sm1weJ-21" value="" style="ellipse;shape=startState;fillColor=#000000;strokeColor=#ff0000;rounded=0;strokeWidth=4;" vertex="1" parent="msa-p7I_3yaAG2sm1weJ-20">
          <mxGeometry x="127.5" y="40" width="30" height="30" as="geometry" />
        </mxCell>
        <mxCell id="msa-p7I_3yaAG2sm1weJ-24" value="&lt;font style=&quot;font-size: 20px;&quot;&gt;외부밝기&amp;gt;조명설정밝기&lt;/font&gt;" style="rhombus;whiteSpace=wrap;html=1;fontColor=#000000;fillColor=#ffffc0;strokeColor=#ff0000;rounded=0;strokeWidth=4;" vertex="1" parent="msa-p7I_3yaAG2sm1weJ-20">
          <mxGeometry x="18" y="186" width="254.5" height="96" as="geometry" />
        </mxCell>
        <mxCell id="msa-p7I_3yaAG2sm1weJ-25" value="조명 밝기 제어" style="rounded=0;strokeWidth=4;fontSize=20;" vertex="1" parent="msa-p7I_3yaAG2sm1weJ-20">
          <mxGeometry x="64" y="451" width="162.5" height="56" as="geometry" />
        </mxCell>
        <mxCell id="msa-p7I_3yaAG2sm1weJ-59" value="" style="edgeStyle=elbowEdgeStyle;elbow=horizontal;verticalAlign=bottom;endArrow=open;endSize=8;strokeColor=#FF0000;endFill=1;rounded=0;entryX=0.5;entryY=0;entryDx=0;entryDy=0;strokeWidth=4;" edge="1" parent="msa-p7I_3yaAG2sm1weJ-20">
          <mxGeometry x="-1345" y="-100" as="geometry">
            <mxPoint x="144.8899999999999" y="448" as="targetPoint" />
            <mxPoint x="144.8899999999999" y="288" as="sourcePoint" />
          </mxGeometry>
        </mxCell>
        <mxCell id="msa-p7I_3yaAG2sm1weJ-60" value="" style="edgeStyle=elbowEdgeStyle;elbow=horizontal;verticalAlign=bottom;endArrow=open;endSize=8;strokeColor=#FF0000;endFill=1;rounded=0;strokeWidth=4;" edge="1" parent="msa-p7I_3yaAG2sm1weJ-20">
          <mxGeometry x="-1345" y="-100" as="geometry">
            <mxPoint x="146" y="173" as="targetPoint" />
            <mxPoint x="141.8699999999999" y="70" as="sourcePoint" />
          </mxGeometry>
        </mxCell>
        <mxCell id="msa-p7I_3yaAG2sm1weJ-28" value="" style="edgeStyle=none;curved=1;rounded=0;orthogonalLoop=1;jettySize=auto;html=1;fontSize=12;startSize=8;endSize=8;strokeWidth=4;" edge="1" parent="1">
          <mxGeometry relative="1" as="geometry">
            <mxPoint x="1190" y="40" as="sourcePoint" />
            <mxPoint x="1233" y="117" as="targetPoint" />
          </mxGeometry>
        </mxCell>
        <mxCell id="msa-p7I_3yaAG2sm1weJ-26" value="&lt;font style=&quot;font-size: 20px;&quot;&gt;광 센서&lt;/font&gt;" style="shape=umlActor;verticalLabelPosition=bottom;verticalAlign=top;html=1;outlineConnect=0;rounded=0;strokeWidth=4;" vertex="1" parent="1">
          <mxGeometry x="1080" y="-160" width="30" height="60" as="geometry" />
        </mxCell>
        <mxCell id="msa-p7I_3yaAG2sm1weJ-29" value="" style="endArrow=classic;html=1;rounded=0;fontSize=12;startSize=8;endSize=8;curved=1;entryX=0.351;entryY=-0.007;entryDx=0;entryDy=0;entryPerimeter=0;strokeWidth=4;" edge="1" parent="1" target="msa-p7I_3yaAG2sm1weJ-20">
          <mxGeometry width="50" height="50" relative="1" as="geometry">
            <mxPoint x="1234" y="44" as="sourcePoint" />
            <mxPoint x="1450" y="-80" as="targetPoint" />
          </mxGeometry>
        </mxCell>
        <mxCell id="msa-p7I_3yaAG2sm1weJ-62" value="&lt;font style=&quot;font-size: 20px;&quot;&gt;라즈베리 파이&lt;/font&gt;" style="shape=umlActor;verticalLabelPosition=bottom;verticalAlign=top;html=1;outlineConnect=0;rounded=0;strokeWidth=4;" vertex="1" parent="1">
          <mxGeometry x="1169" y="-50" width="30" height="60" as="geometry" />
        </mxCell>
        <mxCell id="msa-p7I_3yaAG2sm1weJ-66" value="" style="endArrow=none;html=1;rounded=0;dashed=1;endFill=0;startArrow=classic;startFill=1;labelBackgroundColor=none;fontColor=default;strokeWidth=4;" edge="1" parent="1">
          <mxGeometry width="50" height="50" relative="1" as="geometry">
            <mxPoint x="1260" y="-70" as="sourcePoint" />
            <mxPoint x="1200" y="-20" as="targetPoint" />
          </mxGeometry>
        </mxCell>
        <mxCell id="msa-p7I_3yaAG2sm1weJ-68" value="" style="endArrow=none;html=1;rounded=0;dashed=1;endFill=0;startArrow=classic;startFill=1;labelBackgroundColor=none;fontColor=default;strokeWidth=4;" edge="1" parent="1">
          <mxGeometry width="50" height="50" relative="1" as="geometry">
            <mxPoint x="1100" y="-70" as="sourcePoint" />
            <mxPoint x="1160" y="-20" as="targetPoint" />
          </mxGeometry>
        </mxCell>
        <mxCell id="msa-p7I_3yaAG2sm1weJ-70" value="&lt;font style=&quot;font-size: 20px;&quot;&gt;무인점포&lt;/font&gt;" style="shape=umlActor;verticalLabelPosition=bottom;verticalAlign=top;html=1;outlineConnect=0;rounded=0;strokeWidth=4;" vertex="1" parent="1">
          <mxGeometry x="1125" y="800" width="30" height="60" as="geometry" />
        </mxCell>
        <mxCell id="msa-p7I_3yaAG2sm1weJ-71" value="" style="endArrow=none;html=1;rounded=0;dashed=1;endFill=0;startArrow=classic;startFill=1;labelBackgroundColor=none;fontColor=default;strokeWidth=4;" edge="1" parent="1">
          <mxGeometry width="50" height="50" relative="1" as="geometry">
            <mxPoint x="1110" y="830" as="sourcePoint" />
            <mxPoint x="1020" y="610" as="targetPoint" />
          </mxGeometry>
        </mxCell>
        <mxCell id="msa-p7I_3yaAG2sm1weJ-72" value="&lt;font style=&quot;font-size: 20px;&quot;&gt;return&lt;/font&gt;" style="text;html=1;align=center;verticalAlign=middle;resizable=0;points=[];autosize=1;strokeColor=none;fillColor=none;rotation=65;labelBackgroundColor=none;rounded=0;strokeWidth=4;" vertex="1" parent="1">
          <mxGeometry x="1060" y="727" width="70" height="36" as="geometry" />
        </mxCell>
        <mxCell id="msa-p7I_3yaAG2sm1weJ-73" value="" style="endArrow=none;html=1;rounded=0;dashed=1;endFill=0;startArrow=classic;startFill=1;labelBackgroundColor=none;fontColor=default;strokeWidth=4;" edge="1" parent="1">
          <mxGeometry width="50" height="50" relative="1" as="geometry">
            <mxPoint x="1150" y="790" as="sourcePoint" />
            <mxPoint x="1223" y="620" as="targetPoint" />
          </mxGeometry>
        </mxCell>
        <mxCell id="msa-p7I_3yaAG2sm1weJ-74" value="&lt;font style=&quot;font-size: 20px;&quot;&gt;return&lt;/font&gt;" style="text;html=1;align=center;verticalAlign=middle;resizable=0;points=[];autosize=1;strokeColor=none;fillColor=none;rotation=-60;labelBackgroundColor=none;rounded=0;strokeWidth=4;" vertex="1" parent="1">
          <mxGeometry x="1130" y="710" width="70" height="36" as="geometry" />
        </mxCell>
        <mxCell id="msa-p7I_3yaAG2sm1weJ-75" value="" style="endArrow=none;html=1;rounded=0;dashed=1;endFill=0;startArrow=classic;startFill=1;labelBackgroundColor=none;fontColor=default;fontStyle=1;strokeWidth=4;" edge="1" parent="1">
          <mxGeometry width="50" height="50" relative="1" as="geometry">
            <mxPoint x="1165" y="812" as="sourcePoint" />
            <mxPoint x="1510" y="637.5" as="targetPoint" />
          </mxGeometry>
        </mxCell>
        <mxCell id="msa-p7I_3yaAG2sm1weJ-76" value="&lt;font style=&quot;font-size: 20px;&quot;&gt;return&lt;/font&gt;" style="text;html=1;align=center;verticalAlign=middle;resizable=0;points=[];autosize=1;strokeColor=none;fillColor=none;rotation=-30;labelBackgroundColor=none;fontStyle=1;rounded=0;strokeWidth=4;" vertex="1" parent="1">
          <mxGeometry x="1200" y="746" width="70" height="36" as="geometry" />
        </mxCell>
        <mxCell id="msa-p7I_3yaAG2sm1weJ-80" value="쓰레기통 분리수거" style="swimlane;whiteSpace=wrap;rounded=0;startSize=23;strokeWidth=4;fontSize=20;" vertex="1" parent="1">
          <mxGeometry x="1670" y="120" width="405" height="570" as="geometry" />
        </mxCell>
        <mxCell id="msa-p7I_3yaAG2sm1weJ-81" value="" style="ellipse;shape=startState;fillColor=#000000;strokeColor=#ff0000;rounded=0;strokeWidth=4;" vertex="1" parent="msa-p7I_3yaAG2sm1weJ-80">
          <mxGeometry x="185.18" y="37" width="30" height="30" as="geometry" />
        </mxCell>
        <mxCell id="msa-p7I_3yaAG2sm1weJ-82" value="&lt;font style=&quot;font-size: 20px;&quot;&gt;카메라 인식&lt;/font&gt;" style="rhombus;whiteSpace=wrap;html=1;fontColor=#000000;fillColor=#ffffc0;strokeColor=#ff0000;rounded=0;strokeWidth=4;" vertex="1" parent="msa-p7I_3yaAG2sm1weJ-80">
          <mxGeometry x="113.68" y="138" width="173" height="56" as="geometry" />
        </mxCell>
        <mxCell id="msa-p7I_3yaAG2sm1weJ-98" style="edgeStyle=none;curved=1;rounded=0;orthogonalLoop=1;jettySize=auto;html=1;fontSize=12;startSize=8;endSize=8;strokeWidth=4;" edge="1" parent="msa-p7I_3yaAG2sm1weJ-80" source="msa-p7I_3yaAG2sm1weJ-83" target="msa-p7I_3yaAG2sm1weJ-97">
          <mxGeometry relative="1" as="geometry" />
        </mxCell>
        <mxCell id="msa-p7I_3yaAG2sm1weJ-83" value="일반 쓰레기통 개방" style="rounded=0;strokeWidth=4;fontSize=20;" vertex="1" parent="msa-p7I_3yaAG2sm1weJ-80">
          <mxGeometry x="12.5" y="297" width="185" height="44" as="geometry" />
        </mxCell>
        <mxCell id="msa-p7I_3yaAG2sm1weJ-85" value="" style="edgeStyle=elbowEdgeStyle;elbow=horizontal;verticalAlign=bottom;endArrow=open;endSize=8;strokeColor=#FF0000;endFill=1;rounded=0;strokeWidth=4;" edge="1" parent="msa-p7I_3yaAG2sm1weJ-80">
          <mxGeometry x="-1345" y="-100" as="geometry">
            <mxPoint x="199.68" y="135" as="targetPoint" />
            <mxPoint x="199.5499999999999" y="67" as="sourcePoint" />
          </mxGeometry>
        </mxCell>
        <mxCell id="msa-p7I_3yaAG2sm1weJ-99" style="edgeStyle=none;curved=1;rounded=0;orthogonalLoop=1;jettySize=auto;html=1;exitX=0.5;exitY=1;exitDx=0;exitDy=0;fontSize=12;startSize=8;endSize=8;strokeWidth=4;" edge="1" parent="msa-p7I_3yaAG2sm1weJ-80" source="msa-p7I_3yaAG2sm1weJ-87" target="msa-p7I_3yaAG2sm1weJ-97">
          <mxGeometry relative="1" as="geometry" />
        </mxCell>
        <mxCell id="msa-p7I_3yaAG2sm1weJ-87" value="캔 쓰레기통 개방" style="rounded=0;strokeWidth=4;fontSize=20;" vertex="1" parent="msa-p7I_3yaAG2sm1weJ-80">
          <mxGeometry x="213" y="297" width="175" height="46" as="geometry" />
        </mxCell>
        <mxCell id="msa-p7I_3yaAG2sm1weJ-93" value="&lt;font style=&quot;font-size: 20px;&quot;&gt;일반쓰레기&lt;/font&gt;" style="text;strokeColor=none;fillColor=none;html=1;align=center;verticalAlign=middle;whiteSpace=wrap;rounded=0;fontSize=16;rotation=-60;strokeWidth=4;" vertex="1" parent="msa-p7I_3yaAG2sm1weJ-80">
          <mxGeometry x="88" y="214.82" width="111" height="38" as="geometry" />
        </mxCell>
        <mxCell id="msa-p7I_3yaAG2sm1weJ-95" value="&lt;font style=&quot;font-size: 20px;&quot;&gt;캔&lt;/font&gt;" style="text;strokeColor=none;fillColor=none;html=1;align=center;verticalAlign=middle;whiteSpace=wrap;rounded=0;fontSize=16;rotation=60;strokeWidth=4;" vertex="1" parent="msa-p7I_3yaAG2sm1weJ-80">
          <mxGeometry x="215.18" y="215" width="60" height="30" as="geometry" />
        </mxCell>
        <mxCell id="msa-p7I_3yaAG2sm1weJ-97" value="쓰레기통 폐쇄" style="rounded=0;strokeWidth=4;fontSize=20;" vertex="1" parent="msa-p7I_3yaAG2sm1weJ-80">
          <mxGeometry x="145" y="455" width="110" height="50" as="geometry" />
        </mxCell>
        <mxCell id="msa-p7I_3yaAG2sm1weJ-102" value="" style="edgeStyle=none;orthogonalLoop=1;jettySize=auto;html=1;rounded=0;fontSize=12;startSize=8;endSize=8;curved=1;fillColor=#e51400;strokeColor=#ff0000;strokeWidth=4;" edge="1" parent="msa-p7I_3yaAG2sm1weJ-80">
          <mxGeometry width="140" relative="1" as="geometry">
            <mxPoint x="196.68" y="191" as="sourcePoint" />
            <mxPoint x="130.68" y="289" as="targetPoint" />
            <Array as="points" />
          </mxGeometry>
        </mxCell>
        <mxCell id="msa-p7I_3yaAG2sm1weJ-103" value="" style="edgeStyle=none;orthogonalLoop=1;jettySize=auto;html=1;rounded=0;fontSize=12;startSize=8;endSize=8;curved=1;entryX=0.5;entryY=0;entryDx=0;entryDy=0;strokeColor=#ff0000;strokeWidth=4;" edge="1" parent="msa-p7I_3yaAG2sm1weJ-80">
          <mxGeometry width="140" relative="1" as="geometry">
            <mxPoint x="203" y="194" as="sourcePoint" />
            <mxPoint x="266" y="290" as="targetPoint" />
            <Array as="points" />
          </mxGeometry>
        </mxCell>
        <mxCell id="msa-p7I_3yaAG2sm1weJ-104" value="" style="endArrow=classic;html=1;rounded=0;fontSize=12;startSize=8;endSize=8;curved=1;entryX=0.351;entryY=-0.007;entryDx=0;entryDy=0;entryPerimeter=0;strokeWidth=4;" edge="1" parent="1">
          <mxGeometry width="50" height="50" relative="1" as="geometry">
            <mxPoint x="1219" y="1" as="sourcePoint" />
            <mxPoint x="1797" y="116" as="targetPoint" />
          </mxGeometry>
        </mxCell>
        <mxCell id="msa-p7I_3yaAG2sm1weJ-105" value="&lt;font style=&quot;font-size: 20px;&quot;&gt;카메라 센서&lt;/font&gt;" style="shape=umlActor;verticalLabelPosition=bottom;verticalAlign=top;html=1;outlineConnect=0;rounded=0;strokeWidth=4;" vertex="1" parent="1">
          <mxGeometry x="1385" y="-105" width="30" height="60" as="geometry" />
        </mxCell>
        <mxCell id="msa-p7I_3yaAG2sm1weJ-106" value="" style="endArrow=none;html=1;rounded=0;dashed=1;endFill=0;startArrow=classic;startFill=1;labelBackgroundColor=none;fontColor=default;strokeWidth=4;" edge="1" parent="1">
          <mxGeometry width="50" height="50" relative="1" as="geometry">
            <mxPoint x="1355" y="-58" as="sourcePoint" />
            <mxPoint x="1210" y="-10" as="targetPoint" />
          </mxGeometry>
        </mxCell>
        <mxCell id="msa-p7I_3yaAG2sm1weJ-107" value="" style="endArrow=none;html=1;rounded=0;dashed=1;endFill=0;startArrow=classic;startFill=1;labelBackgroundColor=none;fontColor=default;fontStyle=1;strokeWidth=4;" edge="1" parent="1">
          <mxGeometry width="50" height="50" relative="1" as="geometry">
            <mxPoint x="1187" y="848" as="sourcePoint" />
            <mxPoint x="1813" y="637" as="targetPoint" />
          </mxGeometry>
        </mxCell>
        <mxCell id="msa-p7I_3yaAG2sm1weJ-108" value="&lt;font style=&quot;font-size: 20px;&quot;&gt;return&lt;/font&gt;" style="text;html=1;align=center;verticalAlign=middle;resizable=0;points=[];autosize=1;strokeColor=none;fillColor=none;rotation=-15;labelBackgroundColor=none;fontStyle=1;rounded=0;strokeWidth=4;" vertex="1" parent="1">
          <mxGeometry x="1367" y="746" width="70" height="36" as="geometry" />
        </mxCell>
      </root>
    </mxGraphModel>
  </diagram>
</mxfile>
